<?xml version="1.0" encoding="UTF-8"?><svg xmlns="http://www.w3.org/2000/svg" width="125" height="125" viewBox="0 0 125 125" fill="none" version="1.2" baseProfile="tiny-ps"><title>bimi</title><path d="M125 0H0V125H125V0Z" fill="#05172F"></path><path d="M33 61.652H36.121V85.08H61.837L59.252 88.098H33V61.652Z" fill="white"></path><path d="M40.026 35.642H90.356V52.858H87.376V38.614H40.026V35.642Z" fill="white"></path><path d="M87.536 69.972L90.359 66.097V85.805H87.536V69.972Z" fill="white"></path><path d="M33 25.686L38.052 20V52.923H64.052L51.439 66.491L55.264 57.932H33V25.686Z" fill="white"></path><path d="M73.175 48.411L69.666 56.505H94.176L69.666 87.278H98.366L92.438 92.628H58.265L83.442 61.409H62.069L73.175 48.411Z" fill="white"></path></svg>